<?xml version="1.0" encoding="UTF-8" standalone="no"?>
<svg width="24px" height="24px" viewBox="0 0 24 24" version="1.1" xmlns="http://www.w3.org/2000/svg" xmlns:xlink="http://www.w3.org/1999/xlink">
    <!-- Generator: Sketch 43.2 (39069) - http://www.bohemiancoding.com/sketch -->
    <title>Group</title>
    <desc>Created with Sketch.</desc>
    <defs></defs>
    <g id="Page-1" stroke="none" stroke-width="1" fill="none" fill-rule="evenodd">
        <g id="Artboard" transform="translate(-1276.000000, -65.000000)">
            <g id="header" transform="translate(791.000000, 63.000000)">
                <g id="Group" transform="translate(485.000000, 2.000000)">
                    <path d="M23.5,12 C23.5,18.351 18.352,23.5 12,23.5 C5.648,23.5 0.5,18.351 0.5,12 C0.5,5.648 5.648,0.5 12,0.5 C18.352,0.5 23.5,5.648 23.5,12 L23.5,12 Z" id="Stroke-696" stroke="#ffffff" stroke-linecap="round" stroke-linejoin="round"></path>
                    <path d="M18.5,16.1655 C18.5,17.4545 17.455,18.4995 16.167,18.4995 L7.833,18.4995 C6.545,18.4995 5.5,17.4545 5.5,16.1655 L5.5,7.8315 C5.5,6.5445 6.545,5.4995 7.833,5.4995 L16.167,5.4995 C17.455,5.4995 18.5,6.5445 18.5,7.8315 L18.5,16.1655 L18.5,16.1655 Z" id="Stroke-697" stroke="#ffffff" stroke-linejoin="round"></path>
                    <path d="M5.5,9.5 L9.766,9.5" id="Stroke-698" stroke="#ffffff" stroke-linejoin="round"></path>
                    <path d="M14.2344,9.5 L18.5004,9.5" id="Stroke-699" stroke="#ffffff" stroke-linejoin="round"></path>
                    <path d="M15,11.5 C15,13.156 13.656,14.5 12,14.5 C10.343,14.5 9,13.156 9,11.5 C9,9.843 10.343,8.5 12,8.5 C13.656,8.5 15,9.843 15,11.5 L15,11.5 Z" id="Stroke-700" stroke="#ffffff" stroke-linejoin="round"></path>
                    <polygon id="Fill-701" fill="#ffffff" points="17 7 16 7 16 8 17 8"></polygon>
                    <path d="M7.5,5.5 L7.5,9.5" id="Stroke-702" stroke="#ffffff" stroke-linejoin="round"></path>
                    <path d="M9.5,5.5 L9.5,9.5" id="Stroke-703" stroke="#ffffff" stroke-linejoin="round"></path>
                </g>
            </g>
        </g>
    </g>
</svg>