<?xml version="1.0" encoding="UTF-8" standalone="no"?>
<svg width="401px" height="52px" viewBox="0 0 401 52" version="1.1" xmlns="http://www.w3.org/2000/svg" xmlns:xlink="http://www.w3.org/1999/xlink">
    <!-- Generator: Sketch 43.2 (39069) - http://www.bohemiancoding.com/sketch -->
    <title>logo v2</title>
    <desc>Created with Sketch.</desc>
    <defs></defs>
    <g id="Page-1" stroke="none" stroke-width="1" fill="none" fill-rule="evenodd">
        <g id="Artboard" transform="translate(-100.000000, -50.000000)" fill="#333333">
            <g id="logo-v2" transform="translate(100.000000, 50.000000)">
                <path d="M20.9178753,49.9954117 C20.5831129,51.4181517 13.3857227,48.8237436 13.3020321,43.8859991 C13.2183415,39.0737905 22.5916869,13.0041737 24.8094874,7.52244041 C19.8298977,10.7445279 7.73660829,12.8367925 3.21731676,12.0417319 C1.29243333,11.7069696 -0.967212434,6.85291574 0.706599244,7.14583278 C8.7408953,8.56857271 22.2987699,5.22094936 25.6882385,3.33791122 C27.2783596,2.45916009 32.5508664,6.22523636 33.0948552,8.40119154 C33.6806893,10.7445279 34.643131,33.5920573 34.8942028,32.838842 C35.5637274,30.8721133 44.100167,3.9655906 43.2632612,1.41302779 C42.0497477,-2.22751261 54.1011918,3.63082826 52.8876783,7.52244041 C50.3769608,15.5148912 42.5518912,40.5802211 40.5851625,47.2754678 C40.3340907,48.1960642 40.1667096,49.0748153 40.3340907,49.9535665 C40.6688531,53.0501181 31.63027,49.74434 31.63027,45.0576673 C31.63027,32.1693174 31.2955077,28.1521693 30.7096736,20.3270997 C28.0734202,26.8968106 22.2150793,44.5555238 20.9178753,49.9954117 Z M104.954487,42.5905535 C103.680582,41.4718336 102.590787,40.0664048 102.306968,38.7808735 C101.428217,34.8474161 109.127751,18.6951334 114.651329,17.8582275 C116.408831,17.6071558 120.42598,22.3356738 120.342289,23.2562702 C114.651329,27.9429429 109.420668,37.56736 109.085905,43.3838556 C110.424955,40.9568287 114.10734,35.6424766 117.120201,31.6671739 C118.29187,28.7380034 119.505383,26.0599047 119.965681,25.8925236 C121.513957,25.3066895 125.57295,28.1940146 125.48926,29.3656828 C125.405569,30.6628869 124.443128,33.257295 123.396995,35.9353936 C126.326166,31.2068757 129.715634,26.3109765 131.18022,25.8506783 C131.849744,25.6414518 132.142661,26.3946671 131.933435,26.6875841 C130.761767,28.3195505 125.57295,33.5920573 120.384134,44.011535 L120.342289,44.011535 C117.915262,44.9321314 114.609484,41.5426628 114.609484,39.5340888 C114.609484,39.0737905 114.860556,38.0276582 115.279009,36.7304542 C113.144899,39.4503982 110.759717,42.8817121 109.839121,44.304452 C109.33701,45.1078292 107.745591,44.6098204 106.147546,43.5183334 C102.507916,48.3662499 93.0657611,44.9711142 90.1718334,35.265869 C89.6696899,36.5212277 87.53558,43.2583197 87.1589724,44.4299879 C86.8260692,45.5266102 85.475947,45.0928219 84.1635974,44.1964805 C80.1781771,48.003237 71.5351112,44.4757596 68.7888892,35.265869 C68.2867457,36.5212277 66.1526359,43.2583197 65.7760282,44.4299879 C65.0646583,46.7733243 59.7084609,42.1284969 60.0013779,40.9149834 C60.1905924,40.0770336 61.1175288,36.7116225 62.3352514,32.3964183 C58.617407,37.6553661 53.6511908,44.4943675 53.0969048,44.8902861 C51.2557119,46.1874902 45.8995146,42.295878 45.8995146,40.4128399 C45.8995146,39.8270058 52.0507725,21.6661491 52.8876783,20.9966244 C56.6119093,21.4569226 59.2063174,22.6285908 59.290008,24.5534742 C59.3318533,25.1811536 54.1430371,39.4503982 54.1430371,40.3709946 C54.1430371,41.2639643 60.5137583,32.403529 63.5841597,27.9954761 C65.9951942,19.5424355 68.869913,9.69413548 69.7094857,7.27136866 C70.7974633,4.17481706 78.7480687,7.48059512 77.3671741,11.3722073 C77.2416382,11.7906602 73.2663355,23.7584137 72.8060373,25.2648442 C75.5259813,22.5449002 84.4808737,16.351797 85.4014702,19.5738845 C87.3681989,26.4365124 74.7309207,29.8678263 74.3961584,30.0352075 C74.0195507,30.2025887 73.8103243,30.2025887 74.0195507,30.830268 C76.6382953,38.1627527 81.100748,44.9062751 83.0600458,43.3286269 C82.0409009,42.4177382 81.268124,41.3963758 81.3843221,40.9149834 C81.9701562,38.3205753 89.6278446,11.4977431 91.0924299,7.27136866 C92.1804075,4.17481706 100.131013,7.48059512 98.7501183,11.3722073 C98.6245824,11.7906602 94.6492797,23.7584137 94.1889815,25.2648442 C96.9089254,22.5449002 105.863818,16.351797 106.784414,19.5738845 C108.751143,26.4365124 96.1138649,29.8678263 95.7791026,30.0352075 C95.4024949,30.2025887 95.1932685,30.2025887 95.4024949,30.830268 C98.2850591,38.9014478 103.401524,46.2590203 104.954487,42.5905535 Z M56.1934564,20.4944809 C53.7245841,19.6994204 52.4273801,17.5234652 54.3104182,17.3142387 C52.1344631,14.050306 56.6119093,10.6608373 59.6666156,11.2466714 C62.009952,11.7069696 63.307156,15.2219741 62.6794766,17.3142387 C62.2191784,18.8625145 60.4616762,21.8753756 56.1934564,20.4944809 Z M57.6161963,17.1050123 C58.2438757,16.3936423 58.4949474,15.4730459 57.7835775,15.4730459 C57.281434,15.4730459 56.4026828,16.1425706 56.862981,16.351797 C57.0722075,16.5191782 57.0722075,16.6865593 57.0303622,16.9376311 C57.0722075,17.1887029 57.4488151,17.356084 57.6161963,17.1050123 Z M77.5764006,26.6038935 C79.4594387,24.9719272 81.3006315,23.3818061 83.2673603,21.8753756 C82.6396809,23.8839496 79.501284,26.2272859 77.5764006,26.6038935 Z M98.9593447,26.6038935 C100.842383,24.9719272 102.683576,23.3818061 104.650304,21.8753756 C104.022625,23.8839496 100.884228,26.2272859 98.9593447,26.6038935 Z" id="Nikka"></path>
                <path d="M183.030365,22.5459676 C183.030365,23.9963062 182.537804,25.1079877 181.552669,25.8810455 C180.567533,26.6541033 179.171945,27.0406264 177.365863,27.0406264 L175.046701,27.0406264 L175.046701,33.2387403 L174,33.2387403 L174,18.2360209 L177.673717,18.2360209 C181.244833,18.2360209 183.030365,19.6726554 183.030365,22.5459676 Z M175.046701,26.1375899 L177.109319,26.1375899 C178.7991,26.1375899 180.020239,25.8588144 180.772773,25.301255 C181.525308,24.7436956 181.901569,23.8389579 181.901569,22.5870148 C181.901569,21.4308487 181.545831,20.5739988 180.834344,20.0164394 C180.122857,19.45888 179.021437,19.1801045 177.530052,19.1801045 L175.046701,19.1801045 L175.046701,26.1375899 Z M205.243956,33.2387403 L204.186993,33.2387403 L204.186993,25.8605219 L195.423435,25.8605219 L195.423435,33.2387403 L194.376733,33.2387403 L194.376733,18.2360209 L195.423435,18.2360209 L195.423435,24.8959148 L204.186993,24.8959148 L204.186993,18.2360209 L205.243956,18.2360209 L205.243956,33.2387403 Z M230.187181,25.716857 C230.187181,28.0976014 229.592004,29.9806189 228.401632,31.3659658 C227.211259,32.7513128 225.569391,33.4439759 223.475978,33.4439759 C221.389406,33.4439759 219.750959,32.7513128 218.560587,31.3659658 C217.370214,29.9806189 216.775037,28.0907603 216.775037,25.6963335 C216.775037,23.3087479 217.375345,21.429151 218.575979,20.0574865 C219.776613,18.685822 221.416771,18 223.496502,18 C225.589915,18 227.228362,18.6892425 228.411893,20.0677483 C229.595424,21.446254 230.187181,23.3292714 230.187181,25.716857 Z M217.914095,25.716857 C217.914095,27.865 218.392973,29.5256811 219.350743,30.6989503 C220.308514,31.8722194 221.683579,32.4588452 223.475978,32.4588452 C225.28206,32.4588452 226.662256,31.8773502 227.616606,30.7143429 C228.570956,29.5513356 229.048124,27.8855236 229.048124,25.716857 C229.048124,23.5550317 228.570956,21.8977711 227.616606,20.7450256 C226.662256,19.5922801 225.288901,19.015916 223.496502,19.015916 C221.710943,19.015916 220.334169,19.597411 219.366136,20.7604183 C218.398104,21.9234256 217.914095,23.5755553 217.914095,25.716857 Z M245.002031,33.2387403 L243.945068,33.2387403 L243.945068,19.2211516 L239.070723,19.2211516 L239.070723,18.2360209 L249.876375,18.2360209 L249.876375,19.2211516 L245.002031,19.2211516 L245.002031,33.2387403 Z M272.377297,25.716857 C272.377297,28.0976014 271.78212,29.9806189 270.591747,31.3659658 C269.401375,32.7513128 267.759507,33.4439759 265.666094,33.4439759 C263.579522,33.4439759 261.941075,32.7513128 260.750702,31.3659658 C259.56033,29.9806189 258.965153,28.0907603 258.965153,25.6963335 C258.965153,23.3087479 259.565461,21.429151 260.766095,20.0574865 C261.966729,18.685822 263.606887,18 265.686618,18 C267.780031,18 269.418478,18.6892425 270.602009,20.0677483 C271.78554,21.446254 272.377297,23.3292714 272.377297,25.716857 Z M260.10421,25.716857 C260.10421,27.865 260.583089,29.5256811 261.540859,30.6989503 C262.49863,31.8722194 263.873695,32.4588452 265.666094,32.4588452 C267.472176,32.4588452 268.852371,31.8773502 269.806721,30.7143429 C270.761072,29.5513356 271.23824,27.8855236 271.23824,25.716857 C271.23824,23.5550317 270.761072,21.8977711 269.806721,20.7450256 C268.852371,19.5922801 267.479017,19.015916 265.686618,19.015916 C263.901059,19.015916 262.524285,19.597411 261.556252,20.7604183 C260.588219,21.9234256 260.10421,23.5755553 260.10421,25.716857 Z M289.8089,25.6758099 L295.339998,25.6758099 L295.339998,32.5204158 C293.88966,33.1361256 292.258053,33.4439759 290.44513,33.4439759 C288.078068,33.4439759 286.263462,32.7752567 285.001257,31.4377983 C283.739052,30.1003399 283.107959,28.2070607 283.107959,25.7579042 C283.107959,24.2323122 283.42094,22.8794813 284.046912,21.699371 C284.672883,20.5192606 285.56907,19.6076818 286.735498,18.9646071 C287.901925,18.3215325 289.241074,18 290.752984,18 C292.388035,18 293.855455,18.3010091 295.155286,18.9030365 L294.734553,19.84712 C293.434722,19.2450927 292.087022,18.9440836 290.691413,18.9440836 C288.714301,18.9440836 287.145974,19.5546533 285.986388,20.7758109 C284.826801,21.9969686 284.247016,23.6439675 284.247016,25.716857 C284.247016,27.9744595 284.797726,29.6727668 285.899163,30.8118298 C287.000599,31.9508929 288.618523,32.5204158 290.752984,32.5204158 C292.13491,32.5204158 293.308162,32.325444 294.272773,31.9354945 L294.272773,26.6609406 L289.8089,26.6609406 L289.8089,25.6758099 Z M308.235896,26.7019877 L308.235896,33.2387403 L307.189194,33.2387403 L307.189194,18.2360209 L310.760293,18.2360209 C312.621105,18.2360209 313.996169,18.579787 314.885528,19.2673296 C315.774886,19.9548721 316.219559,20.9895911 316.219559,22.3715174 C316.219559,23.3771767 315.954466,24.2254752 315.424271,24.9164384 C314.894077,25.6074015 314.088535,26.1033825 313.007622,26.4043962 L317.081548,33.2387403 L315.829611,33.2387403 L311.960921,26.7019877 L308.235896,26.7019877 Z M308.235896,25.7989513 L311.098932,25.7989513 C312.364557,25.7989513 313.346258,25.5167552 314.044062,24.9523546 C314.741866,24.387954 315.090763,23.555048 315.090763,22.4536116 C315.090763,21.311128 314.748708,20.4799323 314.064586,19.9599996 C313.380464,19.4400669 312.265362,19.1801045 310.719246,19.1801045 L308.235896,19.1801045 L308.235896,25.7989513 Z M334.985193,27.9436629 L328.889697,27.9436629 L326.796294,33.2387403 L325.636714,33.2387403 L331.670639,18.1744502 L332.337655,18.1744502 L338.248439,33.2387403 L337.068334,33.2387403 L334.985193,27.9436629 Z M329.269383,26.9995793 L334.636293,26.9995793 L332.594199,21.5916223 C332.423169,21.1674667 332.217935,20.5791306 331.978492,19.8265965 C331.793779,20.4833536 331.591966,21.0785307 331.373047,21.6121459 L329.269383,26.9995793 Z M357.486115,22.5459676 C357.486115,23.9963062 356.993554,25.1079877 356.008419,25.8810455 C355.023283,26.6541033 353.627695,27.0406264 351.821613,27.0406264 L349.502452,27.0406264 L349.502452,33.2387403 L348.45575,33.2387403 L348.45575,18.2360209 L352.129467,18.2360209 C355.700583,18.2360209 357.486115,19.6726554 357.486115,22.5459676 Z M349.502452,26.1375899 L351.565069,26.1375899 C353.25485,26.1375899 354.475989,25.8588144 355.228524,25.301255 C355.981058,24.7436956 356.357319,23.8389579 356.357319,22.5870148 C356.357319,21.4308487 356.001581,20.5739988 355.290094,20.0164394 C354.578607,19.45888 353.477188,19.1801045 351.985802,19.1801045 L349.502452,19.1801045 L349.502452,26.1375899 Z M379.699707,33.2387403 L378.642743,33.2387403 L378.642743,25.8605219 L369.879185,25.8605219 L369.879185,33.2387403 L368.832484,33.2387403 L368.832484,18.2360209 L369.879185,18.2360209 L369.879185,24.8959148 L378.642743,24.8959148 L378.642743,18.2360209 L379.699707,18.2360209 L379.699707,33.2387403 Z M395.479163,26.4454433 L399.871204,18.2360209 L401,18.2360209 L396.002514,27.4408357 L396.002514,33.2387403 L394.925027,33.2387403 L394.925027,27.52293 L389.907018,18.2360209 L391.107646,18.2360209 L395.479163,26.4454433 Z" id="photography"></path>
                <polygon id="Line" fill-rule="nonzero" points="152.5 7.5 152.5 43.5 153.5 43.5 153.5 7.5"></polygon>
            </g>
        </g>
    </g>
</svg>